<?xml version="1.0" encoding="UTF-8"?>
<svg viewBox="0 0 8 8" style="background-color: #EEEED2" xmlns="http://www.w3.org/2000/svg">
  <rect x="1" width="1" height="1" fill="#769656" />
  <rect x="3" width="1" height="1" fill="#769656" />
  <rect x="5" width="1" height="1" fill="#769656" />
  <rect x="7" width="1" height="1" fill="#769656" />
  <rect y="1" width="1" height="1" fill="#769656" />
  <rect x="2" y="1" width="1" height="1" fill="#769656" />
  <rect x="4" y="1" width="1" height="1" fill="#769656" />
  <rect x="6" y="1" width="1" height="1" fill="#769656" />
  <rect x="1" y="2" width="1" height="1" fill="#769656" />
  <rect x="3" y="2" width="1" height="1" fill="#769656" />
  <rect x="5" y="2" width="1" height="1" fill="#769656" />
  <rect x="7" y="2" width="1" height="1" fill="#769656" />
  <rect y="3" width="1" height="1" fill="#769656" />
  <rect x="2" y="3" width="1" height="1" fill="#769656" />
  <rect x="4" y="3" width="1" height="1" fill="#769656" />
  <rect x="6" y="3" width="1" height="1" fill="#769656" />
  <rect x="1" y="4" width="1" height="1" fill="#769656" />
  <rect x="3" y="4" width="1" height="1" fill="#769656" />
  <rect x="5" y="4" width="1" height="1" fill="#769656" />
  <rect x="7" y="4" width="1" height="1" fill="#769656" />
  <rect y="5" width="1" height="1" fill="#769656" />
  <rect x="2" y="5" width="1" height="1" fill="#769656" />
  <rect x="4" y="5" width="1" height="1" fill="#769656" />
  <rect x="6" y="5" width="1" height="1" fill="#769656" />
  <rect x="1" y="6" width="1" height="1" fill="#769656" />
  <rect x="3" y="6" width="1" height="1" fill="#769656" />
  <rect x="5" y="6" width="1" height="1" fill="#769656" />
  <rect x="7" y="6" width="1" height="1" fill="#769656" />
  <rect y="7" width="1" height="1" fill="#769656" />
  <rect x="2" y="7" width="1" height="1" fill="#769656" />
  <rect x="4" y="7" width="1" height="1" fill="#769656" />
  <rect x="6" y="7" width="1" height="1" fill="#769656" />
</svg>
